<?xml version="1.0" encoding="utf-8"?>
<!-- Generator: Adobe Illustrator 19.0.1, SVG Export Plug-In . SVG Version: 6.00 Build 0)  -->
<svg version="1.1" id="Layer_1" xmlns="http://www.w3.org/2000/svg" xmlns:xlink="http://www.w3.org/1999/xlink" x="0px" y="0px"
	 viewBox="-299 390.3 12 12.7" style="enable-background:new -299 390.3 12 12.7;" xml:space="preserve">
<style type="text/css">
	.st0{fill:#4E6592;}
</style>
<g>
	<path class="st0" d="M-287.9,396l-4.8-4.8c-0.1-0.1-0.3-0.1-0.4,0l-4.8,4.8c-0.1,0.1-0.1,0.3,0,0.4s0.3,0.1,0.4,0l0.3-0.3h0.3v0.3
		v0.7v4.4c0,0.1,0.1,0.3,0.3,0.3h2.7c0.1,0,0.3-0.1,0.3-0.3V399h1.4v2.5c0,0.1,0.1,0.3,0.3,0.3h2.7c0.1,0,0.3-0.1,0.3-0.3v-5.1l0,0
		v-0.3h0.3l0.3,0.3c0,0,0.1,0.1,0.3,0.1c0.1,0,0.1,0,0.3-0.1C-287.8,396.3-287.8,396.1-287.9,396z"/>
	<path class="st0" d="M-289.7,393.7c0,0,0.1,0.1,0.3,0.1h0.1c0.1,0,0.1-0.1,0.1-0.3v-1.8c0-0.1-0.1-0.3-0.3-0.3h-1.8
		c-0.1,0-0.3,0.1-0.3,0.1c0,0.1,0,0.3,0,0.3L-289.7,393.7z"/>
</g>
</svg>
