<?xml version="1.0" encoding="utf-8"?>
<!-- Generator: Adobe Illustrator 16.0.3, SVG Export Plug-In . SVG Version: 6.00 Build 0)  -->
<!DOCTYPE svg PUBLIC "-//W3C//DTD SVG 1.1//EN" "http://www.w3.org/Graphics/SVG/1.1/DTD/svg11.dtd">
<svg version="1.1" id="Layer_1" xmlns="http://www.w3.org/2000/svg" xmlns:xlink="http://www.w3.org/1999/xlink" x="0px" y="0px"
	 width="127.999px" height="128px" viewBox="0 0 127.999 128" style="enable-background:new 0 0 127.999 128;" xml:space="preserve"
	>
<style type="text/css">
<![CDATA[
	.st0{fill:#231F20;}
]]>
</style>
<g>
	<path class="st0" d="M117.247,113.095h-14.981v-9c0-1.381-1.119-2.5-2.5-2.5s-2.5,1.119-2.5,2.5v9H66.5v-10.229
		c0-1.381-1.119-2.5-2.5-2.5s-2.5,1.119-2.5,2.5v10.229H35.766v-9c0-1.381-1.119-2.5-2.5-2.5s-2.5,1.119-2.5,2.5v9H13.752V11.905
		c0-1.657-1.343-3-3-3s-3,1.343-3,3v104.189c0,1.657,1.343,3,3,3h106.495c1.657,0,3-1.343,3-3S118.904,113.095,117.247,113.095z"/>
	<path class="st0" d="M30.766,86.787v5.308c0,1.381,1.119,2.5,2.5,2.5s2.5-1.119,2.5-2.5v-5.308c0-1.381-1.119-2.5-2.5-2.5
		S30.766,85.406,30.766,86.787z"/>
	<path class="st0" d="M61.5,80.866v10c0,1.381,1.119,2.5,2.5,2.5s2.5-1.119,2.5-2.5v-10c0-1.381-1.119-2.5-2.5-2.5
		S61.5,79.485,61.5,80.866z"/>
	<path class="st0" d="M102.266,56.095c0-1.381-1.119-2.5-2.5-2.5s-2.5,1.119-2.5,2.5v12c0,1.381,1.119,2.5,2.5,2.5
		s2.5-1.119,2.5-2.5V56.095z"/>
	<path class="st0" d="M99.766,77.595c-1.381,0-2.5,1.119-2.5,2.5v12c0,1.381,1.119,2.5,2.5,2.5s2.5-1.119,2.5-2.5v-12
		C102.266,78.714,101.146,77.595,99.766,77.595z"/>
	<path class="st0" d="M102.266,40.366c0-1.381-1.119-2.5-2.5-2.5s-2.5,1.119-2.5,2.5v3.729c0,1.381,1.119,2.5,2.5,2.5
		s2.5-1.119,2.5-2.5V40.366z"/>
	<path class="st0" d="M33.873,81.777c4.287-0.559,7.512-3.927,8.085-8.011l13.683-1.783c0.508,0.991,1.191,1.912,2.067,2.701
		c3.856,3.475,9.801,3.166,13.274-0.69c2.895-3.212,3.154-7.868,0.935-11.344l23.646-26.243c3.688,1.847,8.291,1.105,11.185-2.106
		c3.475-3.856,3.166-9.801-0.69-13.274c-3.856-3.475-9.801-3.166-13.274,0.69c-2.895,3.212-3.154,7.868-0.935,11.344L68.202,59.304
		c-3.688-1.847-8.291-1.105-11.185,2.106c-1.468,1.629-2.253,3.631-2.388,5.662l-13.318,1.735c-1.602-3.8-5.581-6.229-9.868-5.671
		c-5.146,0.671-8.776,5.388-8.105,10.535C24.009,78.818,28.727,82.448,33.873,81.777z"/>
</g>
</svg>
