<?xml version="1.0" encoding="utf-8"?>
<!-- Generator: Adobe Illustrator 16.0.3, SVG Export Plug-In . SVG Version: 6.00 Build 0)  -->
<!DOCTYPE svg PUBLIC "-//W3C//DTD SVG 1.1//EN" "http://www.w3.org/Graphics/SVG/1.1/DTD/svg11.dtd">
<svg version="1.1" id="Layer_1" xmlns="http://www.w3.org/2000/svg" xmlns:xlink="http://www.w3.org/1999/xlink" x="0px" y="0px"
	 width="128px" height="128px" viewBox="0 0 128 128" style="enable-background:new 0 0 128 128;" xml:space="preserve">
<path d="M109.359,22.194H97.506v-7.014h6.225l-6.225-6.929H30.488h-0.027v0.03l-6.197,6.899h6.197v7.014H18.635
	c-4.354,0-7.889,3.529-7.889,7.889v81.775c0,4.359,3.535,7.891,7.889,7.891h90.725c4.355,0,7.889-3.531,7.889-7.891V30.083
	C117.248,25.723,113.715,22.194,109.359,22.194z M62.641,19.363c0.502-1.021,2.178-1.021,2.68-0.001l1.398,2.833l3.881,7.861
	l0.729,1.476l13.428,1.952c0.562,0.082,1.029,0.477,1.207,1.018c0.174,0.542,0.029,1.135-0.379,1.532l-9.717,9.471l2.295,13.375
	c0.096,0.561-0.135,1.127-0.594,1.462c-0.461,0.336-1.07,0.379-1.576,0.113L63.98,54.14l-12.01,6.314
	c-0.219,0.115-0.459,0.172-0.697,0.172c-0.309,0-0.617-0.097-0.877-0.286c-0.461-0.334-0.691-0.901-0.596-1.462l2.297-13.375
	l-9.717-9.471c-0.408-0.397-0.553-0.991-0.379-1.532c0.178-0.541,0.645-0.936,1.207-1.018l13.428-1.952l0.729-1.476l3.878-7.861
	L62.641,19.363z M108.791,104.874c0,3.871-1.621,7.014-5.496,7.014H24.619c-3.875,0-5.416-3.143-5.416-7.014V37.07
	c0-3.876,1.541-7.015,5.416-7.015h5.842v67.602v3.004l33.52-23.83l33.523,23.83l0.001-45.972c0.001-0.003,0.001-0.006,0.001-0.01
	V30.055h5.789c3.875,0,5.496,3.139,5.496,7.015V104.874z"/>
</svg>
