<?xml version="1.0" encoding="utf-8"?>
<!-- Generator: Adobe Illustrator 19.1.0, SVG Export Plug-In . SVG Version: 6.00 Build 0)  -->
<!DOCTYPE svg PUBLIC "-//W3C//DTD SVG 1.1//EN" "http://www.w3.org/Graphics/SVG/1.1/DTD/svg11.dtd">
<svg version="1.1" id="Layer_1" xmlns="http://www.w3.org/2000/svg" xmlns:xlink="http://www.w3.org/1999/xlink" x="0px" y="0px"
	 viewBox="-237 328.2 136.8 136.8" style="enable-background:new -237 328.2 136.8 136.8;" xml:space="preserve">
<style type="text/css">
	.st0{fill:#FFFFFF;}
	.st1{fill:#DDDBDB;}
	.st2{fill:#BF2026;}
</style>
<g>
	<g>
		<g>
			<path class="st0" d="M-193.5,340.8c-3.4,0-6.2,2.8-6.2,6.2v98.7c0,3.4,2.8,6.2,6.2,6.2h70.9c3.4,0,6.2-2.8,6.2-6.2v-76.3
				l-29.7-28.6L-193.5,340.8L-193.5,340.8z"/>
		</g>
		<path class="st1" d="M-116.4,369.4H-140c-3.4,0-6.2-2.8-6.2-6.2v-22.4L-116.4,369.4z"/>
		<path class="st2" d="M-147.4,409.5c0,3.9-3.2,7.1-7.1,7.1h-51.9c-3.9,0-7.1-3.2-7.1-7.1v-21.7c0-3.9,3.2-7.1,7.1-7.1h51.9
			c3.9,0,7.1,3.2,7.1,7.1V409.5z"/>
		<g>
			<path class="st0" d="M-194,400.9h-2.7v4.1c0,0.6-0.1,1-0.4,1.3s-0.6,0.5-1,0.5s-0.8-0.2-1.1-0.4c-0.3-0.3-0.4-0.7-0.4-1.3V394
				c0-0.6,0.1-1.1,0.4-1.4c0.3-0.3,0.8-0.4,1.4-0.4h3.8c1.1,0,2,0.1,2.6,0.3c0.6,0.2,1.1,0.4,1.5,0.8s0.8,0.8,1,1.4
				c0.2,0.6,0.3,1.2,0.3,1.9c0,1.5-0.5,2.6-1.4,3.4C-190.8,400.6-192.2,400.9-194,400.9z M-194.7,394.3h-2v4.4h2
				c0.7,0,1.3-0.1,1.7-0.2c0.5-0.1,0.8-0.4,1.1-0.7c0.2-0.3,0.4-0.8,0.4-1.3c0-0.6-0.2-1.2-0.6-1.6
				C-192.5,394.5-193.4,394.3-194.7,394.3z"/>
			<path class="st0" d="M-184.3,392.1h3.8c1,0,1.8,0.1,2.6,0.3c0.8,0.2,1.4,0.5,1.9,1c1.5,1.3,2.3,3.2,2.3,5.9
				c0,0.9-0.1,1.7-0.2,2.4c-0.2,0.7-0.4,1.4-0.7,1.9c-0.3,0.6-0.7,1.1-1.2,1.5c-0.4,0.3-0.8,0.6-1.3,0.8c-0.5,0.2-1,0.4-1.5,0.4
				c-0.5,0.1-1.1,0.1-1.8,0.1h-3.8c-0.5,0-0.9-0.1-1.2-0.2c-0.3-0.2-0.4-0.4-0.5-0.7c-0.1-0.3-0.1-0.7-0.1-1.1v-10.6
				c0-0.6,0.1-1.1,0.4-1.4C-185.4,392.2-184.9,392.1-184.3,392.1z M-183.1,394.4v9.8h2.2c0.5,0,0.9,0,1.1,0c0.3,0,0.6-0.1,0.9-0.2
				s0.6-0.3,0.8-0.4c1-0.8,1.5-2.3,1.5-4.3c0-1.4-0.2-2.5-0.6-3.2c-0.4-0.7-1-1.2-1.6-1.4c-0.6-0.2-1.4-0.3-2.3-0.3H-183.1
				L-183.1,394.4z"/>
			<path class="st0" d="M-162.5,394.4h-5.8v3.7h4.8c0.4,0,0.8,0.1,1,0.3c0.2,0.2,0.3,0.5,0.3,0.8s-0.1,0.6-0.3,0.8
				c-0.2,0.2-0.6,0.3-1,0.3h-4.8v4.8c0,0.6-0.1,1.1-0.4,1.3c-0.3,0.3-0.6,0.4-1.1,0.4c-0.4,0-0.8-0.1-1.1-0.4
				c-0.3-0.3-0.4-0.7-0.4-1.3V394c0-0.4,0.1-0.8,0.2-1c0.1-0.3,0.3-0.5,0.6-0.6c0.3-0.1,0.6-0.2,1-0.2h6.9c0.5,0,0.8,0.1,1,0.3
				c0.2,0.2,0.3,0.5,0.3,0.8s-0.1,0.6-0.3,0.8C-161.7,394.3-162,394.4-162.5,394.4z"/>
		</g>
	</g>
</g>
</svg>
