<?xml version="1.0" encoding="utf-8"?>
<!-- Generator: Adobe Illustrator 19.1.0, SVG Export Plug-In . SVG Version: 6.00 Build 0)  -->
<svg version="1.1" id="Layer_1" xmlns="http://www.w3.org/2000/svg" xmlns:xlink="http://www.w3.org/1999/xlink" x="0px" y="0px"
	 viewBox="-237 328.2 136.8 136.8" style="enable-background:new -237 328.2 136.8 136.8;" xml:space="preserve">
<style type="text/css">
	.st0{fill:#CCE9E9;}
	.st1{fill:#7BCCC7;}
	.st2{fill:#6EBCB5;}
	.st3{fill:#C2DFDD;}
	.st4{fill:#CDE9E6;}
	.st5{fill:#B2D0CC;}
	.st6{fill:#626463;}
	.st7{fill:#E7E7E7;}
	.st8{fill:#DFDFDF;}
	.st9{fill:#EDEEEF;}
	.st10{fill:#67B4AD;}
	.st11{fill:#5CA39B;}
	.st12{fill:#C5E2E5;}
	.st13{fill:#6CC077;}
	.st14{fill:#67B8CB;}
	.st15{opacity:0.15;fill:#626463;enable-background:new    ;}
	.st16{fill:#447A74;}
</style>
<g>
	<g>
		<path class="st0" d="M-144.4,401c0,2.4-1.9,4.3-4.3,4.3h-39.8c-2.4,0-4.3-1.9-4.3-4.3v-17.4c0-2.4,1.9-4.3,4.3-4.3h39.8
			c2.4,0,4.3,1.9,4.3,4.3V401z"/>
		<path class="st0" d="M-129.7,417.8c0,3.8-3.1,6.9-6.9,6.9h-64.1c-3.8,0-6.9-3.1-6.9-6.9v-28c0-3.8,3.1-6.9,6.9-6.9h64.1
			c3.8,0,6.9,3.1,6.9,6.9V417.8z"/>
		<polygon class="st1" points="-142.6,402.9 -194.6,402.9 -188.9,388.2 -148.3,388.2 		"/>
		<polygon class="st2" points="-142.6,402.9 -194.6,402.9 -188.9,394.5 -148.3,394.5 		"/>
		<path class="st3" d="M-129.7,417.8c0,3.8-3.1,6.9-6.9,6.9h-64.1c-3.8,0-6.9-3.1-6.9-6.9v-28c18.6,16.6,60.1,17.7,77.8,0V417.8z"/>
		<g>
			<path class="st4" d="M-207.5,389.7v2.9c18.6,16.6,60.1,17.7,77.8,0v-2.9C-147.4,407.5-188.9,406.3-207.5,389.7z"/>
			<path class="st5" d="M-136.5,424.6h-64.1c-3.8,0-6.9-3.1-6.9-6.9v2.9c0,3.8,3.1,6.9,6.9,6.9h64.1c3.8,0,6.9-3.1,6.9-6.9v-2.9
				C-129.7,421.5-132.8,424.6-136.5,424.6z"/>
		</g>
		<path class="st6" d="M-146.8,416.3c0,2.1-1.7,3.8-3.8,3.8h-35.7c-2.1,0-3.8-1.7-3.8-3.8v-3.9c0-2.1,1.7-3.8,3.8-3.8h35.7
			c2.1,0,3.8,1.7,3.8,3.8V416.3z"/>
		<polygon class="st7" points="-140,434.9 -196.8,434.9 -186.9,413.4 -149.3,413.4 		"/>
		<polygon class="st8" points="-151.2,358.3 -186.3,358.3 -188,394.5 -148.7,394.5 		"/>
		<polygon class="st7" points="-151.4,359.6 -184.6,359.2 -187.4,394.1 -149.1,394.8 		"/>
		<polygon class="st9" points="-152,361.1 -185.2,360.3 -188,394.5 -148.3,395.1 		"/>
		<circle class="st10" cx="-142.7" cy="389.8" r="2"/>
		<circle class="st10" cx="-136.6" cy="389.8" r="2"/>
		<path class="st11" d="M-146.7,388.4c0,0.4-0.3,0.8-0.8,0.8h-41.9c-0.4,0-0.8-0.3-0.8-0.8l0,0c0-0.4,0.3-0.8,0.8-0.8h41.9
			C-147,387.6-146.7,387.9-146.7,388.4L-146.7,388.4z"/>
		<g>
			<polygon class="st12" points="-146.4,430.9 -173,430.9 -171.8,420 -150.4,420 			"/>
			<g>
				<path class="st13" d="M-147.4,429.4l-2.9-2.8c0,0-1-1-2-1c-0.9,0-1.9,0.9-2.1,1.1l-1.2-0.9c0,0-1.2-1.2-2.3-1.2
					c-1.1,0.1-2.5,1.3-2.5,1.3l-0.4,0.3l-2.3-1.8c0,0-1.5-1.5-2.9-1.4c-1.4,0.1-3,1.6-3,1.6l-3.5,2.5l-0.6,4l26.3,0L-147.4,429.4z"
					/>
				<path class="st14" d="M-157.9,422.6C-157.9,422.5-157.9,422.5-157.9,422.6c0-0.3-0.4-0.6-0.9-0.6c-0.1,0-0.1,0-0.2,0
					c-0.1-0.2-0.4-0.3-0.7-0.3c-0.4,0-0.8,0.2-0.8,0.4c-0.4,0.1-0.7,0.3-0.7,0.5c0,0.2,0.3,0.5,0.7,0.5c0.1,0.2,0.5,0.4,0.9,0.4
					c0.4,0,0.7-0.1,0.9-0.3c0.1,0,0.2,0,0.3,0c0.4,0,0.8-0.2,0.8-0.5C-157.7,422.7-157.8,422.6-157.9,422.6z"/>
				<path class="st14" d="M-153.7,423.2C-153.7,423.2-153.7,423.2-153.7,423.2c0-0.2,0.3-0.4,0.6-0.4c0,0,0.1,0,0.1,0
					c0.1-0.1,0.3-0.2,0.5-0.2c0.3,0,0.5,0.1,0.6,0.3c0.3,0,0.5,0.2,0.5,0.4c0,0.2-0.2,0.3-0.5,0.4c-0.1,0.2-0.3,0.3-0.6,0.3
					c-0.3,0-0.5-0.1-0.6-0.2c-0.1,0-0.1,0-0.2,0c-0.3,0-0.6-0.1-0.6-0.3C-153.8,423.4-153.8,423.3-153.7,423.2z"/>
			</g>
		</g>
		<polygon class="st15" points="-189.1,417.8 -186.9,413.4 -149.3,413.4 -147.1,417.8 		"/>
		<polygon class="st16" points="-174.9,430.7 -189.6,430.7 -185.6,420.1 -173.6,420.1 		"/>
	</g>
</g>
</svg>
