<?xml version="1.0" encoding="utf-8"?>
<!-- Generator: Adobe Illustrator 19.0.1, SVG Export Plug-In . SVG Version: 6.00 Build 0)  -->
<svg version="1.1" id="Layer_1" xmlns="http://www.w3.org/2000/svg" xmlns:xlink="http://www.w3.org/1999/xlink" x="0px" y="0px"
	 viewBox="-297 388.8 16.2 17.2" style="enable-background:new -297 388.8 16.2 17.2;" xml:space="preserve">
<style type="text/css">
	.st0{fill:#AC201C;}
</style>
<g>
	<path class="st0" d="M-281.8,396.7l-6.8-6.8c-0.1-0.1-0.4-0.1-0.6,0l-6.8,6.8c-0.1,0.1-0.1,0.4,0,0.6c0.1,0.1,0.4,0.1,0.6,0
		l0.4-0.4h0.4v0.4v1v6.2c0,0.1,0.1,0.4,0.4,0.4h3.8c0.1,0,0.4-0.1,0.4-0.4V401h2v3.5c0,0.1,0.1,0.4,0.4,0.4h3.8
		c0.1,0,0.4-0.1,0.4-0.4v-7.2l0,0v-0.4h0.4l0.4,0.4c0,0,0.1,0.1,0.4,0.1c0.1,0,0.1,0,0.4-0.1C-281.7,397.1-281.7,396.8-281.8,396.7z
		"/>
	<path class="st0" d="M-284.3,393.4c0,0,0.1,0.1,0.4,0.1h0.1c0.1,0,0.1-0.1,0.1-0.4v-2.5c0-0.1-0.1-0.4-0.4-0.4h-2.5
		c-0.1,0-0.4,0.1-0.4,0.1c0,0.1,0,0.4,0,0.4L-284.3,393.4z"/>
</g>
</svg>
