<?xml version="1.0" encoding="utf-8"?>
<!-- Generator: Adobe Illustrator 16.0.3, SVG Export Plug-In . SVG Version: 6.00 Build 0)  -->
<!DOCTYPE svg PUBLIC "-//W3C//DTD SVG 1.1//EN" "http://www.w3.org/Graphics/SVG/1.1/DTD/svg11.dtd">
<svg version="1.1" id="Layer_1" xmlns="http://www.w3.org/2000/svg" xmlns:xlink="http://www.w3.org/1999/xlink" x="0px" y="0px"
	 width="128px" height="128px" viewBox="0 0 128 128" style="enable-background:new 0 0 128 128;" xml:space="preserve">
<g>
	<path d="M86.385,41.891c-4.082,0-7.401-3.321-7.401-7.401V14.068H38.427c-3.064,0-5.553,2.487-5.553,5.554v27.504H77.57
		c4.199,0,7.606,3.407,7.606,7.609v23.244c0,4.202-3.407,7.609-7.606,7.609H32.874v22.891c0,3.067,2.488,5.553,5.553,5.553h63.867
		c3.067,0,5.554-2.486,5.554-5.553V41.891H86.385z"/>
	<path d="M86.385,37.991h15.984L82.883,19.27v15.22C82.883,36.42,84.453,37.991,86.385,37.991z"/>
	<path d="M79.746,76.083V56.504c0-3.54-2.869-6.409-6.406-6.409H26.558c-3.539,0-6.406,2.869-6.406,6.409v19.579
		c0,3.54,2.867,6.409,6.406,6.409H73.34C76.877,82.491,79.746,79.622,79.746,76.083z M43.366,73.138
		c-0.1,0.172-0.242,0.308-0.427,0.409c-0.184,0.101-0.391,0.151-0.622,0.151c-0.248,0-0.459-0.052-0.631-0.156
		c-0.171-0.103-0.311-0.232-0.417-0.386c-0.107-0.154-0.305-0.453-0.596-0.897l-2.293-3.608l-2.435,3.715
		c-0.189,0.296-0.324,0.503-0.405,0.622c-0.079,0.119-0.175,0.234-0.288,0.347s-0.246,0.201-0.4,0.267
		c-0.153,0.065-0.335,0.098-0.542,0.098c-0.319,0-0.585-0.098-0.796-0.293c-0.209-0.195-0.314-0.479-0.314-0.853
		c0-0.438,0.216-0.974,0.648-1.608l2.915-4.257L34.311,62.9c-0.23-0.368-0.404-0.683-0.519-0.946
		c-0.117-0.264-0.174-0.517-0.174-0.76c0-0.249,0.11-0.473,0.333-0.671c0.222-0.199,0.493-0.298,0.812-0.298
		c0.367,0,0.653,0.108,0.858,0.324c0.203,0.216,0.486,0.618,0.849,1.204l1.955,3.164l2.088-3.164
		c0.172-0.267,0.318-0.494,0.44-0.684c0.121-0.19,0.237-0.347,0.351-0.471s0.238-0.218,0.378-0.28
		c0.139-0.062,0.3-0.093,0.484-0.093c0.331,0,0.603,0.099,0.813,0.298c0.21,0.198,0.314,0.434,0.314,0.706
		c0,0.397-0.229,0.937-0.684,1.618l-2.568,3.839l2.764,4.257c0.249,0.373,0.429,0.683,0.542,0.929s0.169,0.479,0.169,0.698
		C43.518,72.777,43.467,72.966,43.366,73.138z M54.244,73.178c-0.225,0.199-0.554,0.298-0.986,0.298h-6.372
		c-0.575,0-0.988-0.127-1.239-0.382c-0.253-0.254-0.378-0.667-0.378-1.235V61.825c0-0.533,0.119-0.933,0.36-1.2
		c0.238-0.267,0.555-0.4,0.945-0.4c0.397,0,0.719,0.132,0.964,0.396c0.246,0.263,0.369,0.665,0.369,1.204v9.482h5.351
		c0.426,0,0.754,0.104,0.98,0.311c0.229,0.208,0.343,0.468,0.343,0.782C54.581,72.72,54.469,72.979,54.244,73.178z M64.913,71.689
		c-0.406,0.628-1.001,1.12-1.782,1.475c-0.782,0.355-1.709,0.533-2.782,0.533c-1.286,0-2.346-0.243-3.181-0.729
		c-0.594-0.35-1.074-0.816-1.444-1.4s-0.556-1.151-0.556-1.702c0-0.32,0.111-0.594,0.333-0.822c0.223-0.228,0.505-0.342,0.849-0.342
		c0.278,0,0.515,0.089,0.707,0.267s0.357,0.441,0.493,0.791c0.166,0.415,0.345,0.761,0.538,1.04
		c0.191,0.278,0.464,0.508,0.812,0.688c0.35,0.181,0.809,0.271,1.378,0.271c0.781,0,1.418-0.182,1.905-0.546
		c0.49-0.364,0.733-0.819,0.733-1.364c0-0.432-0.132-0.783-0.396-1.053c-0.263-0.27-0.604-0.476-1.021-0.618
		c-0.419-0.142-0.976-0.293-1.676-0.453c-0.936-0.219-1.719-0.476-2.351-0.769c-0.63-0.293-1.131-0.693-1.501-1.2
		c-0.37-0.506-0.556-1.136-0.556-1.888c0-0.717,0.195-1.354,0.586-1.911c0.392-0.557,0.958-0.985,1.698-1.284
		c0.739-0.299,1.61-0.449,2.612-0.449c0.8,0,1.491,0.099,2.075,0.298c0.583,0.198,1.068,0.462,1.453,0.791
		c0.385,0.329,0.666,0.674,0.844,1.036c0.178,0.361,0.267,0.714,0.267,1.057c0,0.314-0.11,0.597-0.334,0.849
		c-0.221,0.252-0.499,0.377-0.83,0.377c-0.302,0-0.532-0.076-0.688-0.227c-0.157-0.151-0.327-0.399-0.511-0.742
		c-0.238-0.492-0.522-0.875-0.854-1.151s-0.864-0.413-1.6-0.413c-0.682,0-1.23,0.15-1.649,0.449
		c-0.416,0.299-0.626,0.659-0.626,1.08c0,0.261,0.071,0.486,0.214,0.676c0.142,0.189,0.338,0.352,0.586,0.489
		c0.249,0.136,0.501,0.243,0.756,0.32c0.255,0.077,0.675,0.189,1.262,0.337c0.735,0.172,1.399,0.361,1.996,0.569
		c0.594,0.208,1.102,0.459,1.518,0.755c0.419,0.296,0.744,0.671,0.978,1.125c0.235,0.453,0.353,1.008,0.353,1.666
		C65.521,70.353,65.318,71.062,64.913,71.689z"/>
</g>
</svg>
